<?xml version="1.0" encoding="utf-8"?>
<!-- Generator: Adobe Illustrator 18.0.0, SVG Export Plug-In . SVG Version: 6.00 Build 0)  -->
<!DOCTYPE svg PUBLIC "-//W3C//DTD SVG 1.1//EN" "http://www.w3.org/Graphics/SVG/1.1/DTD/svg11.dtd">
<svg version="1.1" id="Layer_1" xmlns="http://www.w3.org/2000/svg" xmlns:xlink="http://www.w3.org/1999/xlink" x="0px" y="0px"
	 viewBox="0 0 687.2 1000" enable-background="new 0 0 687.2 1000" xml:space="preserve">
<g>
	<g>
		<path fill="#FFFFFF" d="M185.2,54c28.9,0.7,50.7,8.8,65.3,24.3c14.6,15.5,21.9,39,21.9,70.6c0,31.6-7.3,55.1-21.9,70.6
			c-14.6,15.5-36.4,23.6-65.3,24.3h-65.7V54H185.2z M176.2,228.4c13.6,0,25.4-1.5,35.2-4.4c9.8-2.9,17.9-7.6,24.3-14
			c6.4-6.4,11.1-14.6,14.1-24.7c3-10.1,4.5-22.2,4.5-36.4c0-14.2-1.5-26.3-4.5-36.4c-3-10.1-7.7-18.3-14.1-24.7
			c-6.4-6.4-14.5-11-24.3-14c-9.8-2.9-21.6-4.4-35.2-4.4h-38.6v159H176.2z"/>
		<path fill="#FFFFFF" d="M377.5,54l74.4,189.8h-19.4l-23.1-59H323l-22.9,59h-19.1L357.3,54H377.5z M403.2,169.4l-36.7-97.3
			l-38,97.3H403.2z"/>
		<path fill="#FFFFFF" d="M482.2,205.8c3.2,6.6,7.6,11.8,13.2,15.7c5.6,3.9,12.2,6.7,19.8,8.4c7.6,1.7,15.8,2.5,24.5,2.5
			c5,0,10.4-0.7,16.2-2.1c5.8-1.4,11.3-3.7,16.4-6.8c5.1-3.1,9.3-7.1,12.6-12c3.4-4.9,5.1-10.8,5.1-17.7c0-5.3-1.2-9.9-3.6-13.8
			c-2.4-3.9-5.5-7.2-9.3-9.8c-3.8-2.7-8-4.8-12.6-6.5c-4.6-1.7-9.1-3.1-13.6-4.1l-42.3-10.4c-5.5-1.4-10.9-3.2-16.1-5.3
			c-5.2-2.1-9.8-5-13.7-8.5c-3.9-3.5-7-7.9-9.4-13c-2.4-5.1-3.6-11.4-3.6-18.9c0-4.6,0.9-10,2.7-16.2c1.8-6.2,5.1-12.1,10-17.5
			c4.9-5.5,11.6-10.1,20.1-14c8.5-3.8,19.4-5.7,32.7-5.7c9.4,0,18.3,1.2,26.9,3.7c8.5,2.5,16,6.2,22.3,11.2
			c6.4,5,11.5,11.1,15.3,18.5c3.8,7.4,5.7,15.9,5.7,25.7h-18.1c-0.4-7.3-2-13.6-4.9-19c-2.9-5.4-6.7-9.9-11.4-13.6
			c-4.7-3.6-10.1-6.4-16.2-8.2c-6.1-1.9-12.5-2.8-19.3-2.8c-6.2,0-12.2,0.7-17.9,2c-5.8,1.3-10.8,3.5-15.2,6.4
			c-4.3,2.9-7.8,6.8-10.5,11.6c-2.7,4.8-4,10.7-4,17.8c0,4.4,0.8,8.3,2.3,11.6c1.5,3.3,3.6,6.1,6.2,8.4c2.7,2.3,5.7,4.2,9.2,5.6
			c3.5,1.4,7.1,2.6,11,3.5l46.3,11.4c6.7,1.8,13.1,3.9,19,6.5c5.9,2.6,11.2,5.8,15.7,9.6c4.5,3.8,8.1,8.5,10.6,14
			c2.6,5.5,3.9,12.1,3.9,19.9c0,2.1-0.2,5-0.7,8.5c-0.4,3.5-1.5,7.3-3.2,11.3c-1.7,4-4.1,8-7.2,12.1c-3.1,4.1-7.4,7.8-12.8,11
			c-5.4,3.3-12.1,5.9-20.1,8c-8,2-17.5,3.1-28.7,3.1c-11.2,0-21.5-1.3-31.1-3.9c-9.6-2.6-17.7-6.5-24.5-11.8
			c-6.7-5.3-11.9-12.1-15.6-20.5c-3.6-8.3-5.2-18.3-4.7-30h18.1C477.5,191.1,479,199.3,482.2,205.8z"/>
	</g>
	<g>
		<path fill="#FFFFFF" d="M56,236.7h13.2v26.2h26v13.2h-26v26.2H56v-26.2H30v-13.2h26V236.7z"/>
	</g>
	<g>
		<path fill="#FFFFFF" d="M56,470.9h13.2v26.2h26v13.2h-26v26.2H56v-26.2H30v-13.2h26V470.9z"/>
	</g>
	<g>
		<path fill="#FFFFFF" d="M56,704.9h13.2v26.2h26v13.2h-26v26.2H56v-26.2H30v-13.2h26V704.9z"/>
	</g>
	<g>
		<path fill="#FFFFFF" d="M145.5,292.1l61.7,163l64.1-163h26V478h-17.7V317.3h-0.5L215.5,478h-16.7l-61.2-160.7h-0.5V478h-17.7
			V292.1H145.5z"/>
		<path fill="#FFFFFF" d="M352.7,292.1V478H335V292.1H352.7z"/>
		<path fill="#FFFFFF" d="M519.8,329.2c-3.6-5.6-7.9-10.4-13-14.2c-5.1-3.8-10.8-6.7-16.9-8.7c-6.2-2-12.6-3-19.4-3
			c-12.3,0-22.9,2.3-31.8,7c-8.9,4.7-16.1,10.9-21.7,18.6c-5.6,7.7-9.8,16.4-12.5,26.2c-2.7,9.7-4,19.7-4,29.9c0,10.1,1.3,20,4,29.8
			c2.7,9.8,6.9,18.6,12.5,26.3c5.6,7.7,12.9,13.9,21.7,18.6c8.9,4.7,19.4,7,31.8,7c8.7,0,16.5-1.6,23.4-4.7
			c6.9-3.1,12.9-7.4,18-12.8c5-5.4,9.1-11.7,12.2-18.9c3.1-7.2,5.1-15,6-23.3h17.7c-1.2,11.5-3.9,21.8-8.1,31
			c-4.2,9.2-9.5,17-16.1,23.4c-6.6,6.4-14.4,11.4-23.3,14.8c-8.9,3.5-18.9,5.2-29.8,5.2c-14.6,0-27.4-2.6-38.4-7.9
			c-11-5.3-20.2-12.4-27.5-21.2c-7.3-8.9-12.8-19.1-16.4-30.7c-3.6-11.6-5.5-23.9-5.5-36.7c0-12.8,1.8-25.1,5.5-36.7
			c3.6-11.6,9.1-21.9,16.4-30.9c7.3-8.9,16.4-16.1,27.5-21.4c11-5.3,23.8-7.9,38.4-7.9c8.9,0,17.5,1.3,25.9,3.9
			c8.4,2.6,16.1,6.5,22.9,11.6c6.9,5.1,12.6,11.4,17.2,18.9c4.6,7.5,7.5,16.1,8.7,25.8h-17.7C525.9,341.2,523.3,334.8,519.8,329.2z"
			/>
	</g>
	<g>
		<path fill="#FFFFFF" d="M204.6,526.4c7.6,0,14.9,1,21.7,2.9c6.9,1.9,12.8,4.8,18,8.7c5.1,3.9,9.2,8.9,12.2,15.1
			c3,6.2,4.6,13.4,4.6,21.7c0,11.8-3,22-9.1,30.7c-6.1,8.7-15.1,14.2-27.1,16.7v0.5c6.1,0.9,11.1,2.5,15.1,4.8c4,2.3,7.2,5.3,9.8,9
			c2.5,3.6,4.3,7.9,5.5,12.6c1.1,4.8,1.9,9.9,2.2,15.5c0.2,3.1,0.3,6.9,0.5,11.5c0.2,4.5,0.5,9.1,1,13.7c0.5,4.6,1.3,8.9,2.5,13
			c1.1,4.1,2.6,7.3,4.6,9.5h-19.5c-1-1.7-1.9-3.9-2.5-6.4c-0.6-2.5-1-5.1-1.3-7.8c-0.3-2.7-0.5-5.3-0.7-7.9
			c-0.2-2.6-0.3-4.9-0.5-6.8c-0.4-6.6-0.9-13.1-1.7-19.7c-0.8-6.5-2.4-12.3-4.9-17.4c-2.5-5.1-6.2-9.2-10.9-12.4
			c-4.8-3.1-11.3-4.5-19.7-4.2h-67.2v82.5h-17.7V526.4H204.6z M203.3,614.6c5.4,0,10.5-0.8,15.4-2.5c4.9-1.6,9.1-4,12.8-7.2
			c3.6-3.1,6.5-6.9,8.7-11.3c2.2-4.4,3.3-9.5,3.3-15.2c0-11.5-3.3-20.5-9.9-27.1c-6.6-6.6-16.7-9.9-30.2-9.9h-66.1v73.2H203.3z"/>
		<path fill="#FFFFFF" d="M288.7,582.6c3.6-11.6,9.1-21.9,16.4-30.9c7.3-8.9,16.4-16.1,27.5-21.4c11-5.3,23.8-7.9,38.4-7.9
			c14.6,0,27.3,2.6,38.3,7.9c10.9,5.3,20,12.4,27.3,21.4c7.3,8.9,12.8,19.2,16.4,30.9c3.6,11.6,5.5,23.9,5.5,36.7
			c0,12.8-1.8,25.1-5.5,36.7c-3.6,11.6-9.1,21.9-16.4,30.7c-7.3,8.9-16.4,15.9-27.3,21.2c-10.9,5.3-23.7,7.9-38.3,7.9
			c-14.6,0-27.4-2.6-38.4-7.9c-11-5.3-20.2-12.4-27.5-21.2c-7.3-8.9-12.8-19.1-16.4-30.7c-3.6-11.6-5.5-23.9-5.5-36.7
			C283.2,606.5,285,594.2,288.7,582.6z M305,649.1c2.7,9.8,6.9,18.6,12.5,26.3c5.6,7.7,12.9,13.9,21.7,18.6c8.9,4.7,19.4,7,31.8,7
			c12.3,0,22.9-2.3,31.6-7c8.8-4.7,16-10.9,21.6-18.6c5.6-7.7,9.8-16.5,12.5-26.3c2.7-9.8,4-19.7,4-29.8c0-10.2-1.3-20.2-4-29.9
			c-2.7-9.7-6.9-18.4-12.5-26.2c-5.6-7.7-12.8-13.9-21.6-18.6c-8.8-4.7-19.3-7-31.6-7c-12.3,0-22.9,2.3-31.8,7
			c-8.9,4.7-16.1,10.9-21.7,18.6c-5.6,7.7-9.8,16.4-12.5,26.2c-2.7,9.7-4,19.7-4,29.9C300.9,629.4,302.3,639.3,305,649.1z"/>
	</g>
	<g>
		<path fill="#FFFFFF" d="M198.1,760.4c7.8,0,15.3,0.7,22.5,2.2c7.2,1.5,13.5,4,19,7.6c5.5,3.6,9.8,8.2,13.1,14.1
			c3.3,5.8,4.9,13.1,4.9,21.7c0,4.9-0.8,9.6-2.3,14.2c-1.6,4.6-3.8,8.8-6.6,12.5c-2.9,3.7-6.2,6.9-10.2,9.5
			c-3.9,2.6-8.3,4.4-13.1,5.5v0.5c12,1.6,21.5,6.5,28.6,14.7c7.1,8.2,10.7,18.4,10.7,30.6c0,3-0.3,6.3-0.8,10
			c-0.5,3.7-1.6,7.6-3.1,11.5c-1.6,3.9-3.8,7.8-6.8,11.6c-3,3.8-6.9,7.2-11.8,10c-4.9,2.9-11,5.2-18.2,7c-7.2,1.8-15.8,2.7-25.9,2.7
			h-78.6V760.4H198.1z M198.1,841.9c7.1,0,13.3-0.8,18.5-2.5c5.2-1.6,9.5-3.9,13-6.8c3.5-2.9,6.1-6.2,7.8-10
			c1.7-3.8,2.6-7.9,2.6-12.2c0-23.3-14-34.9-41.9-34.9h-60.9v66.4H198.1z M198.1,931.3c6.6,0,12.8-0.6,18.7-1.7
			c5.9-1.1,11.1-3.2,15.6-6.1c4.5-2.9,8.1-6.9,10.7-11.8c2.6-4.9,3.9-11.2,3.9-18.6c0-12-4.2-21-12.6-27c-8.4-6-20.5-9-36.3-9h-60.9
			v74.2H198.1z"/>
		<path fill="#FFFFFF" d="M288.7,816.7c3.6-11.6,9.1-21.9,16.4-30.9c7.3-8.9,16.4-16.1,27.5-21.4c11-5.3,23.8-7.9,38.4-7.9
			c14.6,0,27.3,2.6,38.3,7.9c10.9,5.3,20,12.4,27.3,21.4c7.3,8.9,12.8,19.2,16.4,30.9c3.6,11.6,5.5,23.9,5.5,36.7
			c0,12.8-1.8,25.1-5.5,36.7c-3.6,11.6-9.1,21.9-16.4,30.7c-7.3,8.9-16.4,15.9-27.3,21.2c-10.9,5.3-23.7,7.9-38.3,7.9
			c-14.6,0-27.4-2.6-38.4-7.9c-11-5.3-20.2-12.4-27.5-21.2c-7.3-8.9-12.8-19.1-16.4-30.7c-3.6-11.6-5.5-23.9-5.5-36.7
			C283.2,840.6,285,828.3,288.7,816.7z M305,883.2c2.7,9.8,6.9,18.6,12.5,26.3c5.6,7.7,12.9,13.9,21.7,18.6c8.9,4.7,19.4,7,31.8,7
			c12.3,0,22.9-2.3,31.6-7c8.8-4.7,16-10.9,21.6-18.6c5.6-7.7,9.8-16.5,12.5-26.3c2.7-9.8,4-19.7,4-29.8c0-10.2-1.3-20.2-4-29.9
			c-2.7-9.7-6.9-18.4-12.5-26.2c-5.6-7.7-12.8-13.9-21.6-18.6c-8.8-4.7-19.3-7-31.6-7c-12.3,0-22.9,2.3-31.8,7
			c-8.9,4.7-16.1,10.9-21.7,18.6c-5.6,7.7-9.8,16.4-12.5,26.2c-2.7,9.7-4,19.7-4,29.9C300.9,863.5,302.3,873.4,305,883.2z"/>
		<path fill="#FFFFFF" d="M613.4,760.4v15.1h-64.8v170.8h-17.7V775.5h-64.6v-15.1H613.4z"/>
	</g>
</g>
</svg>
