<?xml version="1.0" encoding="utf-8"?>
<!-- Generator: Adobe Illustrator 23.0.1, SVG Export Plug-In . SVG Version: 6.00 Build 0)  -->
<svg version="1.1" xmlns="http://www.w3.org/2000/svg" xmlns:xlink="http://www.w3.org/1999/xlink" x="0px" y="0px"
	 viewBox="0 0 500 900" style="enable-background:new 0 0 500 900;" xml:space="preserve">
<style type="text/css">
	.st0{fill:none;}
	.st1{fill:#FBFCF2;}
	.st2{filter:url(#Adobe_OpacityMaskFilter);}
	.st3{mask:url(#SVGID_1_);}
	.st4{fill:#E7E7E0;}
	.st5{filter:url(#Adobe_OpacityMaskFilter_1_);}
	.st6{mask:url(#SVGID_2_);}
	.st7{fill:#FFF200;}
	.st8{fill:#602D91;}
	.st9{fill:#B2D235;}
	.st10{fill:#00AAAD;}
	.st11{fill:#AB4A9C;}
	.st12{fill:#ED1C24;}
	.st13{filter:url(#Adobe_OpacityMaskFilter_2_);}
	.st14{mask:url(#SVGID_3_);}
	.st15{fill:#7194A4;}
	.st16{fill:#CDD3BB;}
	.st17{fill:#656868;}
	.st18{fill:#818991;}
	.st19{fill:#BA9BC9;}
	.st20{fill:#696088;}
	.st21{fill:#9697CB;}
	.st22{fill:#BDBDB0;}
	.st23{fill:#467082;}
	.st24{fill:#2E3192;}
	.st25{fill:#729897;}
	.st26{fill:#2E0B0C;}
	.st27{filter:url(#Adobe_OpacityMaskFilter_3_);}
	.st28{mask:url(#SVGID_4_);}
	.st29{fill:#662D91;}
	.st30{fill:#CBDB2A;}
	.st31{fill:#6DC8BF;}
	.st32{fill:#524FA1;}
	.st33{fill:#00A651;}
	.st34{fill:#00ADDC;}
	.st35{filter:url(#Adobe_OpacityMaskFilter_4_);}
	.st36{mask:url(#SVGID_5_);}
	.st37{filter:url(#Adobe_OpacityMaskFilter_5_);}
	.st38{mask:url(#SVGID_6_);}
	.st39{filter:url(#Adobe_OpacityMaskFilter_6_);}
	.st40{mask:url(#SVGID_7_);}
	.st41{font-family:'Menlo-Regular';}
	.st42{font-size:12px;}
	.st43{filter:url(#Adobe_OpacityMaskFilter_7_);}
	.st44{mask:url(#SVGID_8_);}
	.st45{fill:#B72467;}
	.st46{filter:url(#Adobe_OpacityMaskFilter_8_);}
	.st47{mask:url(#SVGID_9_);}
	.st48{filter:url(#Adobe_OpacityMaskFilter_9_);}
	.st49{mask:url(#SVGID_10_);}
</style>
<g id="Layer_1">
	<g id="Email">
	</g>
</g>
<g id="EMAIL">
	<defs>
		<filter id="Adobe_OpacityMaskFilter" filterUnits="userSpaceOnUse" x="-50.99" y="671.07" width="626.72" height="267.46">
			<feColorMatrix  type="matrix" values="1 0 0 0 0  0 1 0 0 0  0 0 1 0 0  0 0 0 1 0"/>
		</filter>
	</defs>
	<mask maskUnits="userSpaceOnUse" x="-50.99" y="671.07" width="626.72" height="267.46" id="SVGID_1_">
		<g class="st2">
			<rect class="st1" width="500" height="900"/>
		</g>
	</mask>
	<g class="st3">
		<path class="st29" d="M104.18,707.9c-1.59-7.17-5.17-13.99-10.75-19.57c-15.62-15.62-40.95-15.62-56.57,0
			c-68.28,68.28-96.75,161.29-85.44,250.21h69.51C14.81,856.15,42.56,771.74,104.18,707.9z"/>
		<path class="st30" d="M20.93,938.53h72.32c-6.86-80.65,18.77-163.54,76.93-227.4c-1.58-2.53-3.46-4.92-5.65-7.12
			c-15.62-15.62-40.95-15.62-56.57,0c-1.28,1.28-2.53,2.58-3.79,3.88C42.56,771.74,14.81,856.15,20.93,938.53z"/>
		<path class="st31" d="M93.26,938.53h78.65c-12.01-82.21,10.15-168.45,66.47-235.79c-0.58-0.66-1.17-1.3-1.79-1.93
			c-15.62-15.62-40.95-15.62-56.57,0c-3.38,3.38-6.65,6.83-9.83,10.32C112.03,774.99,86.39,857.88,93.26,938.53z"/>
		<path class="st32" d="M186.08,738.48l20.5,14.68c0.6,0.43,1.42,0.29,1.85-0.31l22.41-31.29c0.43-0.6,0.29-1.42-0.31-1.85
			l-20.5-14.68c-0.6-0.43-1.42-0.29-1.85,0.31l-22.41,31.29C185.34,737.22,185.48,738.05,186.08,738.48z M211.4,730.84l-0.01-5.75
			c0-0.33,0.24-0.61,0.57-0.66l14.48-2.08c0.58-0.08,0.97,0.57,0.63,1.04l-18.12,25.31c-0.34,0.48-1.08,0.31-1.19-0.26l-2.69-14.38
			c-0.06-0.32,0.13-0.65,0.44-0.75l5.44-1.84C211.22,731.37,211.4,731.12,211.4,730.84z M209,730.07l-19.27,6.52
			c-0.61,0.21-1.13-0.49-0.75-1.01l19.23-26.86c0.38-0.52,1.2-0.26,1.2,0.39l0.04,20.34C209.45,729.72,209.27,729.97,209,730.07z
			 M203.2,734.88l2.59,13.86c0.11,0.59-0.55,1.01-1.04,0.66l-13.98-10.01c-0.44-0.31-0.34-1,0.17-1.17l11.39-3.85
			C202.72,734.25,203.12,734.49,203.2,734.88z M226.1,720.39l-13.96,2c-0.4,0.06-0.76-0.25-0.76-0.66l-0.03-12.02
			c0-0.54,0.61-0.86,1.05-0.54l13.99,10.02C226.88,719.54,226.69,720.3,226.1,720.39z"/>
		<path class="st33" d="M171.91,938.53h74.33c-12.57-86.04,12.28-176.5,74.55-245.09c-1.89-3.85-4.42-7.46-7.62-10.66
			c-15.62-15.62-40.95-15.62-56.57,0c-6.43,6.43-12.49,13.1-18.22,19.95C182.06,770.09,159.9,856.32,171.91,938.53z"/>
		<path class="st34" d="M246.24,938.53h49.46c1.88-74.2,31.14-147.84,87.77-204.47c3.88-3.88,8.35-6.79,13.13-8.74
			c5.43-14.27,2.41-31.03-9.09-42.53c-15.62-15.62-40.95-15.62-56.57,0c-3.49,3.49-6.86,7.04-10.14,10.66
			C258.52,762.04,233.67,852.49,246.24,938.53z"/>
		<path class="st31" d="M295.7,938.53h76.19c7.1-62.2,33.61-122.59,79.56-171.37c1.42-11.78-2.38-24.06-11.42-33.1
			c-11.74-11.74-28.97-14.66-43.44-8.74c-4.78,1.95-9.25,4.87-13.13,8.74C326.83,790.69,297.58,864.33,295.7,938.53z"/>
		<path class="st29" d="M432.43,938.53c13.83-45.78,38.83-88.91,75.01-125.09c4.59-4.59,10.02-7.82,15.79-9.71
			c5.75-14.4,2.8-31.47-8.86-43.13c-15.62-15.62-40.95-15.62-56.57,0c-2.16,2.16-4.27,4.35-6.35,6.56
			c-45.95,48.78-72.46,109.17-79.56,171.37H432.43z"/>
		<path class="st31" d="M432.43,938.53h85.04c10.71-24.89,26.22-48.2,46.54-68.52c15.62-15.62,15.62-40.95,0-56.57
			c-11.03-11.03-26.9-14.26-40.78-9.71c-5.77,1.89-11.2,5.12-15.79,9.71C471.26,849.62,446.26,892.75,432.43,938.53z"/>
		<path class="st32" d="M389.52,771.73l20.5,14.68c0.6,0.43,1.42,0.29,1.85-0.31l22.41-31.29c0.43-0.6,0.29-1.42-0.31-1.85
			l-20.5-14.68c-0.6-0.43-1.42-0.29-1.85,0.31l-22.41,31.29C388.79,770.47,388.93,771.3,389.52,771.73z M414.85,764.09l-0.01-5.75
			c0-0.33,0.24-0.61,0.57-0.66l14.48-2.08c0.58-0.08,0.97,0.57,0.63,1.04l-18.12,25.3c-0.34,0.48-1.08,0.31-1.19-0.26l-2.69-14.38
			c-0.06-0.32,0.13-0.64,0.44-0.75l5.44-1.84C414.67,764.63,414.85,764.37,414.85,764.09z M412.44,763.32l-19.27,6.52
			c-0.61,0.21-1.13-0.49-0.75-1.01l19.23-26.86c0.38-0.52,1.2-0.26,1.2,0.39l0.04,20.34C412.89,762.97,412.71,763.23,412.44,763.32z
			 M406.64,768.13l2.59,13.86c0.11,0.59-0.55,1.01-1.04,0.66l-13.98-10.01c-0.44-0.31-0.34-1,0.17-1.17l11.39-3.85
			C406.16,767.5,406.57,767.74,406.64,768.13z M429.54,753.64l-13.96,2c-0.4,0.06-0.76-0.25-0.76-0.66l-0.03-12.02
			c0-0.54,0.61-0.86,1.05-0.54l13.99,10.02C430.32,752.79,430.13,753.56,429.54,753.64z"/>
		<path class="st32" d="M463.85,798.27l20.5,14.68c0.6,0.43,1.42,0.29,1.85-0.31l22.41-31.29c0.43-0.6,0.29-1.42-0.31-1.85
			l-20.5-14.68c-0.6-0.43-1.42-0.29-1.85,0.31l-22.41,31.29C463.12,797.01,463.26,797.84,463.85,798.27z M489.18,790.63l-0.01-5.75
			c0-0.33,0.24-0.61,0.57-0.66l14.48-2.08c0.58-0.08,0.97,0.57,0.63,1.04l-18.12,25.31c-0.34,0.48-1.08,0.31-1.19-0.26l-2.69-14.38
			c-0.06-0.32,0.13-0.65,0.44-0.75l5.44-1.84C489,791.16,489.18,790.91,489.18,790.63z M486.77,789.86l-19.27,6.52
			c-0.61,0.21-1.13-0.49-0.75-1.01l19.23-26.86c0.38-0.52,1.2-0.26,1.2,0.39l0.04,20.34C487.22,789.51,487.04,789.76,486.77,789.86z
			 M480.97,794.67l2.59,13.86c0.11,0.59-0.55,1.01-1.04,0.66l-13.98-10.01c-0.44-0.31-0.34-1,0.17-1.17l11.39-3.85
			C480.49,794.04,480.9,794.28,480.97,794.67z M503.87,780.18l-13.96,2c-0.4,0.06-0.76-0.25-0.76-0.66l-0.03-12.02
			c0-0.54,0.61-0.86,1.05-0.54l13.99,10.02C504.65,779.33,504.47,780.09,503.87,780.18z"/>
		<path class="st32" d="M42.92,725.99l20.5,14.68c0.6,0.43,1.42,0.29,1.85-0.31l22.41-31.29c0.43-0.6,0.29-1.42-0.31-1.85
			l-20.5-14.68c-0.6-0.43-1.42-0.29-1.85,0.31l-22.41,31.29C42.19,724.74,42.32,725.57,42.92,725.99z M68.24,718.35l-0.01-5.75
			c0-0.33,0.24-0.61,0.57-0.66l14.48-2.08c0.58-0.08,0.97,0.57,0.63,1.04l-18.12,25.3c-0.34,0.48-1.08,0.31-1.19-0.26l-2.69-14.38
			c-0.06-0.32,0.13-0.64,0.44-0.75l5.44-1.84C68.06,718.89,68.24,718.64,68.24,718.35z M65.84,717.58l-19.27,6.52
			c-0.61,0.21-1.13-0.49-0.75-1.01l19.23-26.86c0.38-0.52,1.2-0.26,1.2,0.39l0.04,20.34C66.29,717.24,66.11,717.49,65.84,717.58z
			 M60.04,722.4l2.59,13.86c0.11,0.59-0.55,1.01-1.04,0.66L47.61,726.9c-0.44-0.31-0.34-1,0.17-1.17l11.39-3.85
			C59.56,721.76,59.96,722,60.04,722.4z M82.94,707.91l-13.96,2c-0.4,0.06-0.76-0.25-0.76-0.66l-0.03-12.02
			c0-0.54,0.61-0.86,1.05-0.54l13.99,10.02C83.72,707.06,83.53,707.82,82.94,707.91z"/>
		<path class="st32" d="M114.02,741.68l20.5,14.68c0.6,0.43,1.42,0.29,1.85-0.31l22.41-31.29c0.43-0.6,0.29-1.42-0.31-1.85
			l-20.5-14.68c-0.6-0.43-1.42-0.29-1.85,0.31l-22.41,31.29C113.29,740.43,113.43,741.25,114.02,741.68z M139.35,734.04l-0.01-5.75
			c0-0.33,0.24-0.61,0.57-0.66l14.48-2.08c0.58-0.08,0.97,0.57,0.63,1.04L136.9,751.9c-0.34,0.48-1.08,0.31-1.19-0.26l-2.69-14.38
			c-0.06-0.32,0.13-0.65,0.44-0.75l5.44-1.84C139.17,734.58,139.35,734.33,139.35,734.04z M136.94,733.27l-19.27,6.52
			c-0.61,0.21-1.13-0.49-0.75-1.01l19.23-26.86c0.38-0.52,1.2-0.26,1.2,0.39l0.04,20.34C137.39,732.93,137.21,733.18,136.94,733.27z
			 M131.14,738.09l2.59,13.86c0.11,0.59-0.55,1.01-1.04,0.66l-13.98-10.01c-0.44-0.31-0.34-1,0.17-1.17l11.39-3.85
			C130.66,737.45,131.07,737.69,131.14,738.09z M154.04,723.59l-13.96,2c-0.4,0.06-0.76-0.25-0.76-0.66l-0.03-12.02
			c0-0.54,0.61-0.86,1.05-0.54l13.99,10.02C154.82,722.75,154.63,723.51,154.04,723.59z"/>
		<path class="st32" d="M262.66,720.46l20.5,14.68c0.6,0.43,1.42,0.29,1.85-0.31l22.41-31.29c0.43-0.6,0.29-1.42-0.31-1.85
			l-20.5-14.68c-0.6-0.43-1.42-0.29-1.85,0.31l-22.41,31.29C261.93,719.2,262.07,720.03,262.66,720.46z M287.99,712.82l-0.01-5.75
			c0-0.33,0.24-0.61,0.57-0.66l14.48-2.08c0.58-0.08,0.97,0.57,0.63,1.04l-18.12,25.3c-0.34,0.48-1.08,0.31-1.19-0.26l-2.69-14.38
			c-0.06-0.32,0.13-0.65,0.44-0.75l5.44-1.84C287.81,713.35,287.99,713.1,287.99,712.82z M285.58,712.05l-19.27,6.52
			c-0.61,0.21-1.13-0.49-0.75-1.01l19.23-26.86c0.38-0.52,1.2-0.26,1.2,0.39l0.04,20.34C286.03,711.7,285.85,711.96,285.58,712.05z
			 M279.78,716.86l2.59,13.86c0.11,0.59-0.55,1.01-1.04,0.66l-13.98-10.01c-0.44-0.31-0.34-1,0.17-1.17l11.39-3.85
			C279.3,716.23,279.71,716.47,279.78,716.86z M302.68,702.37l-13.96,2c-0.4,0.06-0.76-0.25-0.76-0.66l-0.03-12.02
			c0-0.54,0.61-0.86,1.05-0.54l13.99,10.02C303.46,701.52,303.27,702.28,302.68,702.37z"/>
		<path class="st32" d="M336.99,720.46l20.5,14.68c0.6,0.43,1.42,0.29,1.85-0.31l22.41-31.29c0.43-0.6,0.29-1.42-0.31-1.85
			l-20.5-14.68c-0.6-0.43-1.42-0.29-1.85,0.31l-22.41,31.29C336.26,719.2,336.4,720.03,336.99,720.46z M362.32,712.82l-0.01-5.75
			c0-0.33,0.24-0.61,0.57-0.66l14.48-2.08c0.58-0.08,0.97,0.57,0.63,1.04l-18.12,25.3c-0.34,0.48-1.08,0.31-1.19-0.26l-2.69-14.38
			c-0.06-0.32,0.13-0.65,0.44-0.75l5.44-1.84C362.14,713.35,362.32,713.1,362.32,712.82z M359.91,712.05l-19.27,6.52
			c-0.61,0.21-1.13-0.49-0.75-1.01l19.23-26.86c0.38-0.52,1.2-0.26,1.2,0.39l0.04,20.34C360.36,711.7,360.18,711.96,359.91,712.05z
			 M354.11,716.86l2.59,13.86c0.11,0.59-0.55,1.01-1.04,0.66l-13.98-10.01c-0.44-0.31-0.34-1,0.17-1.17l11.39-3.85
			C353.63,716.23,354.04,716.47,354.11,716.86z M377.01,702.37l-13.96,2c-0.4,0.06-0.76-0.25-0.76-0.66l-0.03-12.02
			c0-0.54,0.61-0.86,1.05-0.54l13.99,10.02C377.79,701.52,377.61,702.28,377.01,702.37z"/>
	</g>
</g>
<g id="CODE">
	<defs>
		<filter id="Adobe_OpacityMaskFilter_1_" filterUnits="userSpaceOnUse" x="-550.26" y="585" width="560.52" height="877.48">
			<feColorMatrix  type="matrix" values="1 0 0 0 0  0 1 0 0 0  0 0 1 0 0  0 0 0 1 0"/>
		</filter>
	</defs>
	<mask maskUnits="userSpaceOnUse" x="-550.26" y="585" width="560.52" height="877.48" id="SVGID_2_">
	</mask>
	<g class="st6">
		<g>
			<rect x="-44.92" y="613.8" class="st31" width="55.18" height="578.97"/>
		</g>
		<g>
			<g>
				<text transform="matrix(6.123234e-17 -1 1 6.123234e-17 5.7211 1189.5099)" class="st29 st41 st42">101010100100101101001010101010010100101010010001011110010010010010100w</text>
			</g>
		</g>
	</g>
</g>
<g id="RND">
</g>
<g id="SME">
</g>
</svg>
