<?xml version="1.0" encoding="utf-8"?>
<!-- Generator: Adobe Illustrator 23.0.1, SVG Export Plug-In . SVG Version: 6.00 Build 0)  -->
<svg version="1.1" xmlns="http://www.w3.org/2000/svg" xmlns:xlink="http://www.w3.org/1999/xlink" x="0px" y="0px"
	 viewBox="0 0 500 900" style="enable-background:new 0 0 500 900;" xml:space="preserve">
<style type="text/css">
	.st0{fill:none;}
	.st1{fill:#FBFCF2;}
	.st2{filter:url(#Adobe_OpacityMaskFilter);}
	.st3{mask:url(#SVGID_1_);}
	.st4{fill:#E7E7E0;}
	.st5{filter:url(#Adobe_OpacityMaskFilter_1_);}
	.st6{mask:url(#SVGID_2_);}
	.st7{fill:#FFF200;}
	.st8{fill:#602D91;}
	.st9{fill:#B2D235;}
	.st10{fill:#00AAAD;}
	.st11{fill:#AB4A9C;}
	.st12{fill:#ED1C24;}
	.st13{filter:url(#Adobe_OpacityMaskFilter_2_);}
	.st14{mask:url(#SVGID_3_);}
	.st15{fill:#7194A4;}
	.st16{fill:#CDD3BB;}
	.st17{fill:#656868;}
	.st18{fill:#818991;}
	.st19{fill:#BA9BC9;}
	.st20{fill:#696088;}
	.st21{fill:#9697CB;}
	.st22{fill:#BDBDB0;}
	.st23{fill:#467082;}
	.st24{fill:#2E3192;}
	.st25{fill:#729897;}
	.st26{fill:#2E0B0C;}
	.st27{filter:url(#Adobe_OpacityMaskFilter_3_);}
	.st28{mask:url(#SVGID_4_);}
	.st29{fill:#662D91;}
	.st30{fill:#CBDB2A;}
	.st31{fill:#6DC8BF;}
	.st32{fill:#524FA1;}
	.st33{fill:#00A651;}
	.st34{fill:#00ADDC;}
	.st35{filter:url(#Adobe_OpacityMaskFilter_4_);}
	.st36{mask:url(#SVGID_5_);}
	.st37{filter:url(#Adobe_OpacityMaskFilter_5_);}
	.st38{mask:url(#SVGID_6_);}
	.st39{filter:url(#Adobe_OpacityMaskFilter_6_);}
	.st40{mask:url(#SVGID_7_);}
	.st41{font-family:'Menlo-Regular';}
	.st42{font-size:12px;}
	.st43{filter:url(#Adobe_OpacityMaskFilter_7_);}
	.st44{mask:url(#SVGID_8_);}
	.st45{fill:#B72467;}
	.st46{filter:url(#Adobe_OpacityMaskFilter_8_);}
	.st47{mask:url(#SVGID_9_);}
	.st48{filter:url(#Adobe_OpacityMaskFilter_9_);}
	.st49{mask:url(#SVGID_10_);}
</style>
<g id="Layer_1">
	<g id="Email">
	</g>
</g>
<g id="EMAIL">
</g>
<g id="CODE">
	<defs>
		<filter id="Adobe_OpacityMaskFilter" filterUnits="userSpaceOnUse" x="489.74" y="585" width="560.52" height="877.48">
			<feColorMatrix  type="matrix" values="1 0 0 0 0  0 1 0 0 0  0 0 1 0 0  0 0 0 1 0"/>
		</filter>
	</defs>
	<mask maskUnits="userSpaceOnUse" x="489.74" y="585" width="560.52" height="877.48" id="SVGID_1_">
	</mask>
	<g class="st3">
		<g>
			<rect x="489.74" y="708.54" class="st31" width="55.18" height="578.97"/>
		</g>
		<g>
			<g>
				<text transform="matrix(6.123234e-17 -1 1 6.123234e-17 501.6539 1189.5099)" class="st29 st41 st42">1100101010110110010011110100100110001001100101011010101</text>
			</g>
		</g>
	</g>
</g>
<g id="RND">
	<defs>
		<filter id="Adobe_OpacityMaskFilter_1_" filterUnits="userSpaceOnUse" x="-148.07" y="677.18" width="1143.15" height="603.68">
			<feColorMatrix  type="matrix" values="1 0 0 0 0  0 1 0 0 0  0 0 1 0 0  0 0 0 1 0"/>
		</filter>
	</defs>
	<mask maskUnits="userSpaceOnUse" x="-148.07" y="677.18" width="1143.15" height="603.68" id="SVGID_2_">
		<g class="st5">
			<polygon class="st1" points="0,0 500,0 500,898.58 0,900 			"/>
		</g>
	</mask>
	<g class="st6">
		<path class="st31" d="M91.61,677.23c18.94-0.78,36.74,8.51,52.85,18.51c16.11,10,32.15,21.2,50.72,24.97
			c27.29,5.54,54.73-5.79,81.65-12.9c26.92-7.11,55.56-10.06,82.6-3.4c28.26,6.95,52.92,23.8,79.51,35.62
			c40.07,17.81,85.17,24.09,128.58,17.92c36.17-5.15,72.39-18.73,108.25-11.78c-15.31,57.12-10.06,117.82,1.52,175.81
			c11.58,57.99,29.35,114.68,39.09,173c-51.59,25.42-109.02,36-165.63,46.15c-129.57,23.23-261.81,45.68-392.2,27.67
			c-35.94-4.96-72-13.19-103.78-30.69c-31.11-17.12-56.89-42.44-80.44-69.01c-18.18-20.52-35.78-42.98-42-69.68
			c-5.39-23.13-1.72-47.3,1.96-70.77c7.21-45.91,14.41-91.82,21.62-137.73c3.71-23.61,8.79-49.62,27.85-64.04
			c9.46-7.16,21.04-10.2,32.68-11.29c9.38-0.88,21.07,1.91,29.39-3.58c6.81-4.48,9.64-13.8,14.86-19.76
			C68.47,683.35,79.74,677.72,91.61,677.23z"/>
		<path class="st30" d="M14.7,720.63c30.35,6.17,61.19-6.11,92.13-7.55c64.29-2.99,123.59,40.67,187.93,39.08
			c34.12-0.84,67.1-14.48,101.23-14.13c27.6,0.28,54.16,9.67,80.96,16.28c60.73,14.98,124.91,15.77,185.99,2.3
			c37.08-8.18,78.79-20.8,110.58-0.04c25.22,16.47,34.67,48.75,38.04,78.69c5.32,47.32,0.22,95.17-6.46,142.31
			c-6.17,43.52-16,90.92-50.41,118.27c-15.59,12.39-34.76,19.29-53.73,25.37c-120.89,38.76-248.27,52.71-374.97,60.73
			c-69.41,4.39-139.98,6.98-207.66-9.04c-51.89-12.29-100.74-35.25-146.64-62.4c-13.95-8.25-28.06-17.26-37.37-30.53
			c-8.93-12.71-12.69-28.24-16.27-43.35c-6.67-28.15-13.37-56.53-14.2-85.44c-0.78-27.34,3.71-54.53,8.19-81.52
			c7.68-46.27,16.05-92.48,23.01-138.86c2.05-13.7,2.2-25.26,18.43-26.65C-25.36,702.33-5.45,716.53,14.7,720.63z"/>
		<path class="st32" d="M-6.5,740.94c51.7,12.16,106.07-2.73,158.85,3.27c42.39,4.82,82.41,22.97,124.81,27.68
			c39.23,4.36,79.31-2.93,118.17,3.93c60.06,10.6,113.43,54.22,174.34,51.05c33.78-1.76,64.87-17.91,97.28-27.6
			c34.55-10.33,71.28-13.35,107.05-8.79c33.8,4.31,69.59,17.6,86.56,47.15c11.61,20.2,12.51,44.65,12.04,67.95
			c-1.78,87.97-21.76,181.15-83.97,243.37c-34.23,34.24-78.74,56.46-124.39,72.59c-74.89,26.47-154.22,37.93-233.31,45.31
			c-61.56,5.75-123.73,9.1-185.13,1.89c-51.74-6.08-102.33-19.58-152.11-34.96c-51-15.76-103.13-34.56-141.49-71.68
			c-46.07-44.58-66.35-111.32-64.15-175.4c1.48-43.17,12.25-85.91,10.3-129.06c-1.82-40.21-16.48-84.61-3.11-124.14
			C-93.18,699.27-29.85,735.45-6.5,740.94z"/>
		<path class="st32" d="M-48.43,757.75c68.07-8.99,139.76-8.03,202.24,20.43c34.06,15.51,64.07,38.58,96.6,57.09
			c32.53,18.51,69.61,32.72,106.72,27.84c42.57-5.59,78.37-35.2,120.12-45.2c44.7-10.71,91.6,2.03,134.41,18.77
			c42.81,16.74,84.67,37.76,130.14,44.49c37.66,5.57,76.78,0.88,112.06-13.43c17.27-7.01,39.48-15.39,52.27-1.84
			c6.21,6.57,7.52,16.27,8.05,25.29c6.82,115.84-67.75,225.56-166.21,286.98s-217.16,81.6-333.07,87.31
			c-114.7,5.65-230.54-1.73-342.08-29.07c-37.32-9.15-74.71-20.8-106.58-42.26c-49.43-33.3-81.7-88.44-94.77-146.59
			c-13.07-58.15-8.24-119.18,5.41-177.2c3.74-15.9,8.49-32.8,6.62-49.29c-1.51-13.29-10.53-21.04-1.56-33.2
			C-102.87,767.3-72.13,760.88-48.43,757.75z"/>
		<path class="st45" d="M-48.29,784.42c31.17,4.75,60.18,18.55,90.7,26.5c99.04,25.8,204.03-11.5,305.74-0.18
			c50.34,5.6,98.52,22.98,147.96,33.98c64.41,14.33,130.82,17.78,196.8,16.52c75.98-1.45,155.73-8.38,224.41,24.14
			c7.41,3.51,14.94,7.75,19.31,14.7c5.21,8.29,4.92,18.77,4.47,28.55c-3.66,78.21-10.92,164.69-67.69,218.6
			c-17.55,16.67-38.83,28.98-60.91,38.91c-44.54,20.02-92.6,30.77-140.41,40.75c-68.48,14.29-137.6,27.29-207.53,29.01
			s-141.16-8.25-204.43-38.08c-29.12-13.73-56.16-31.45-83.08-49.11c-54.27-35.59-108.54-71.18-162.81-106.77
			c-29.59-19.4-59.48-39.06-83.68-64.86c-27.71-29.53-46.78-66.86-55.4-106.37c-4.42-20.29-4.6-40.26-5.37-60.87
			c-0.58-15.63-0.99-24.94,13.42-34.15C-96.99,783.03-71.01,780.96-48.29,784.42z"/>
		<path class="st32" d="M-42.63,815.59c128.24,17.78,257.31,29.62,386.65,35.47c33.74,1.53,68.34,2.82,99.55,15.74
			c49.33,20.42,89.51,69.15,142.87,67.18c27.03-1,51.44-15.32,76.59-25.29c69.15-27.41,146.33-22.24,220.5-16.64
			c23.29,1.76,47.13,3.65,68.45,13.17c21.33,9.53,40.03,28.36,42.74,51.57c1.77,15.12-3.28,30.12-8.25,44.5
			c-19.1,55.23-38.2,110.46-57.3,165.69c-4.17,12.07-8.46,24.35-16.1,34.57c-7.9,10.56-18.97,18.34-30.58,24.61
			c-43.33,23.4-94.18,27.25-143.3,30.63c-94.82,6.51-189.64,13.02-284.45,19.54c-44.92,3.08-89.98,6.17-134.93,3.54
			c-46.12-2.7-91.65-11.4-137.38-18c-52.17-7.54-105.14-12.45-155.29-28.69c-50.15-16.24-98.3-45.43-125.43-90.62
			c-28.56-47.57-30.43-105.94-31.5-161.42c-0.51-26.1-0.73-52.23-1.52-78.32c-0.52-17.2-8.35-31.78-9.82-48.33
			c-1.53-17.17,13.61-29.86,28.11-36.24C-89.31,807.83-66.92,815.59-42.63,815.59z"/>
		<path class="st31" d="M-132.33,838.98c11.08-2.51,23.48,0.37,33.46-5.07c6.74-3.67,11.16-10.57,17.61-14.72
			c7.23-4.65,16.27-5.4,24.86-5.19c84.54,1.98,160.65,81.09,242.44,59.61c28.9-7.59,58.33-27.54,86.04-16.34
			c21.92,8.85,35,35.38,58.43,38.54c28.06,3.79,48.97-28.2,77.03-31.98c24.46-3.29,45.64,15.21,66.1,29.01
			c50.71,34.22,117.33,43.69,175.57,24.96c14.12-4.54,27.8-10.64,42.37-13.41c22.03-4.19,44.72-0.53,66.84,3.13
			c53.36,8.83,108.78,18.49,152.82,49.89c17.16,12.23,32.87,27.88,53.24,33.28c7.71,2.04,16.36,2.77,22.13,8.29
			c8.39,8.02,6.46,21.66,3.88,32.98c-9.25,40.67-18.62,81.31-28.12,121.93c-3.75,16.04-7.85,32.74-18.55,45.25
			c-8.6,10.06-20.63,16.41-32.37,22.52c-35.54,18.49-71.55,37.05-110.47,46.55c-73.72,17.99-150.83,2.12-225.91-8.89
			c-95.18-13.96-191.53-19.99-287.71-18.01c-58.86,1.21-118.67,5.32-175.84-8.74c-51.84-12.76-99.03-39.94-142.69-70.66
			c-27.92-19.65-55.5-41.75-71.75-71.77c-34.72-64.14-9.86-141.58-37.32-207.66C-146.35,867.87-157.56,844.69-132.33,838.98z"/>
	</g>
</g>
<g id="SME">
</g>
</svg>
