<?xml version="1.0" encoding="utf-8"?>
<!-- Generator: Adobe Illustrator 23.0.1, SVG Export Plug-In . SVG Version: 6.00 Build 0)  -->
<svg version="1.1" id="logo" xmlns="http://www.w3.org/2000/svg" xmlns:xlink="http://www.w3.org/1999/xlink" x="0px" y="0px"
	 viewBox="0 0 1000 1000" style="enable-background:new 0 0 1000 1000;" xml:space="preserve">
<style type="text/css">
	.st0{fill:#1F2322;}
	.st1{fill:#CE242B;}
</style>
<g>
	<g>
		<path class="st0" d="M339.7,103.5c25.7,0.6,45,7.8,58,21.6c13,13.8,19.5,34.7,19.5,62.7c0,28-6.5,49-19.5,62.7
			c-13,13.8-32.3,21-58,21.6h-58.4V103.5H339.7z M331.7,258.6c12.1,0,22.6-1.3,31.3-3.9c8.7-2.6,16-6.7,21.6-12.4
			c5.7-5.7,9.8-13,12.5-22c2.7-9,4-19.8,4-32.4c0-12.6-1.3-23.4-4-32.4c-2.7-9-6.9-16.3-12.5-22c-5.7-5.7-12.9-9.8-21.6-12.4
			c-8.7-2.6-19.2-3.9-31.3-3.9h-34.3v141.3H331.7z"/>
		<path class="st0" d="M510.6,103.5l66.2,168.7h-17.3L539,219.8h-76.8l-20.3,52.5h-17l67.8-168.7H510.6z M533.5,206.1l-32.6-86.5
			l-33.8,86.5H533.5z"/>
		<path class="st0" d="M603.7,238.5c2.8,5.8,6.7,10.5,11.7,13.9c5,3.5,10.8,5.9,17.6,7.4c6.8,1.5,14,2.2,21.7,2.2
			c4.4,0,9.2-0.6,14.4-1.9c5.2-1.3,10-3.3,14.5-6c4.5-2.8,8.2-6.3,11.2-10.6c3-4.3,4.5-9.6,4.5-15.7c0-4.7-1.1-8.8-3.2-12.3
			c-2.1-3.5-4.9-6.4-8.3-8.7c-3.4-2.4-7.1-4.3-11.2-5.8c-4.1-1.5-8.1-2.7-12.1-3.7l-37.6-9.2c-4.9-1.3-9.7-2.8-14.3-4.7
			c-4.6-1.9-8.7-4.4-12.2-7.6c-3.5-3.1-6.3-7-8.4-11.6c-2.1-4.6-3.2-10.2-3.2-16.8c0-4.1,0.8-8.9,2.4-14.4
			c1.6-5.5,4.5-10.7,8.9-15.6c4.3-4.9,10.3-9,17.8-12.4c7.6-3.4,17.3-5.1,29.1-5.1c8.3,0,16.3,1.1,23.9,3.3
			c7.6,2.2,14.2,5.5,19.9,9.9c5.7,4.4,10.2,9.9,13.6,16.4c3.4,6.5,5.1,14.1,5.1,22.8h-16.1c-0.3-6.5-1.8-12.1-4.4-16.9
			c-2.6-4.8-6-8.8-10.2-12.1c-4.2-3.2-9-5.7-14.4-7.3c-5.4-1.7-11.1-2.5-17.1-2.5c-5.5,0-10.8,0.6-16,1.8c-5.1,1.2-9.6,3.1-13.5,5.7
			c-3.9,2.6-7,6-9.3,10.3c-2.4,4.3-3.5,9.5-3.5,15.8c0,3.9,0.7,7.4,2,10.3c1.3,2.9,3.2,5.4,5.6,7.4c2.4,2,5.1,3.7,8.2,5
			c3.1,1.3,6.3,2.3,9.8,3.1l41.1,10.2c6,1.6,11.6,3.5,16.9,5.8c5.3,2.3,9.9,5.1,13.9,8.5c4,3.4,7.2,7.5,9.5,12.4
			c2.3,4.9,3.4,10.8,3.4,17.7c0,1.9-0.2,4.4-0.6,7.6c-0.4,3.2-1.3,6.5-2.8,10c-1.5,3.5-3.6,7.1-6.4,10.8c-2.8,3.6-6.5,6.9-11.3,9.8
			c-4.8,2.9-10.8,5.3-17.8,7.1c-7.1,1.8-15.6,2.7-25.5,2.7c-9.9,0-19.1-1.1-27.7-3.4c-8.5-2.3-15.8-5.8-21.7-10.5
			c-6-4.7-10.6-10.8-13.8-18.2c-3.2-7.4-4.6-16.3-4.1-26.7h16.1C599.5,225.4,600.9,232.7,603.7,238.5z"/>
	</g>
	<g>
		<path class="st1" d="M224.9,265.9h11.7v23.3h23.1v11.7h-23.1v23.3h-11.7v-23.3h-23.1v-11.7h23.1V265.9z"/>
	</g>
	<g>
		<path class="st1" d="M224.9,474.2h11.7v23.3h23.1v11.7h-23.1v23.3h-11.7v-23.3h-23.1v-11.7h23.1V474.2z"/>
	</g>
	<g>
		<path class="st1" d="M224.9,682.2h11.7v23.3h23.1v11.7h-23.1v23.3h-11.7v-23.3h-23.1v-11.7h23.1V682.2z"/>
	</g>
	<g>
		<path class="st0" d="M304.4,315.2l54.9,144.9l56.9-144.9h23.1v165.3h-15.7V337.6h-0.5l-56.5,142.8h-14.8l-54.4-142.8H297v142.8
			h-15.7V315.2H304.4z"/>
		<path class="st0" d="M488.6,315.2v165.3h-15.7V315.2H488.6z"/>
		<path class="st0" d="M637.1,348.1c-3.2-5-7-9.2-11.6-12.6c-4.6-3.4-9.6-6-15-7.8c-5.5-1.8-11.2-2.7-17.2-2.7
			c-11,0-20.4,2.1-28.2,6.3c-7.9,4.2-14.3,9.7-19.3,16.5c-5,6.9-8.7,14.6-11.1,23.3c-2.4,8.6-3.6,17.5-3.6,26.6
			c0,9,1.2,17.8,3.6,26.5c2.4,8.7,6.1,16.5,11.1,23.4c5,6.9,11.5,12.4,19.3,16.5s17.3,6.2,28.2,6.2c7.7,0,14.7-1.4,20.8-4.2
			c6.2-2.8,11.5-6.6,16-11.3c4.5-4.8,8.1-10.4,10.9-16.8c2.8-6.4,4.6-13.3,5.3-20.7H662c-1.1,10.2-3.5,19.4-7.2,27.5
			c-3.7,8.2-8.5,15.1-14.3,20.8c-5.9,5.7-12.8,10.1-20.7,13.2c-7.9,3.1-16.8,4.6-26.5,4.6c-13,0-24.3-2.4-34.1-7.1
			c-9.8-4.7-17.9-11-24.4-18.9c-6.5-7.9-11.3-17-14.6-27.3c-3.2-10.3-4.9-21.2-4.9-32.6c0-11.4,1.6-22.3,4.9-32.6
			c3.2-10.3,8.1-19.5,14.6-27.4c6.5-7.9,14.6-14.3,24.4-19c9.8-4.7,21.2-7.1,34.1-7.1c7.9,0,15.5,1.2,23,3.5
			c7.5,2.3,14.3,5.8,20.4,10.3c6.1,4.6,11.2,10.1,15.3,16.8c4.1,6.6,6.7,14.3,7.8,22.9h-15.7C642.5,358.8,640.3,353.2,637.1,348.1z"
			/>
	</g>
	<g>
		<path class="st0" d="M356.9,523.4c6.8,0,13.2,0.9,19.3,2.5c6.1,1.7,11.4,4.3,16,7.8c4.6,3.5,8.2,7.9,10.9,13.4
			c2.7,5.5,4.1,11.9,4.1,19.3c0,10.5-2.7,19.6-8.1,27.3c-5.4,7.7-13.4,12.7-24.1,14.8v0.5c5.4,0.8,9.9,2.2,13.4,4.3
			c3.5,2.1,6.4,4.7,8.7,8c2.2,3.2,3.9,7,4.9,11.2c1,4.2,1.7,8.8,2,13.8c0.2,2.8,0.3,6.2,0.5,10.2c0.2,4,0.5,8.1,0.9,12.2
			c0.5,4.1,1.2,7.9,2.2,11.6c1,3.6,2.4,6.4,4.1,8.4h-17.4c-0.9-1.5-1.7-3.4-2.2-5.7c-0.5-2.2-0.9-4.5-1.2-6.9
			c-0.2-2.4-0.4-4.7-0.6-7.1c-0.2-2.3-0.3-4.3-0.5-6c-0.3-5.9-0.8-11.7-1.5-17.5s-2.2-11-4.4-15.5c-2.2-4.5-5.5-8.2-9.7-11
			c-4.2-2.8-10.1-4-17.5-3.7H297v73.4h-15.7V523.4H356.9z M355.8,601.9c4.8,0,9.3-0.7,13.7-2.2c4.3-1.5,8.1-3.6,11.3-6.4
			c3.2-2.8,5.8-6.1,7.8-10.1c1.9-3.9,2.9-8.4,2.9-13.5c0-10.2-2.9-18.2-8.8-24.1c-5.9-5.9-14.8-8.8-26.8-8.8H297v65H355.8z"/>
		<path class="st0" d="M431.7,573.4c3.2-10.3,8.1-19.5,14.6-27.4c6.5-7.9,14.6-14.3,24.4-19c9.8-4.7,21.2-7.1,34.1-7.1
			c13,0,24.3,2.4,34,7.1c9.7,4.7,17.8,11,24.3,19c6.5,7.9,11.3,17.1,14.6,27.4c3.2,10.3,4.9,21.2,4.9,32.6c0,11.4-1.6,22.3-4.9,32.6
			c-3.2,10.3-8.1,19.4-14.6,27.3c-6.5,7.9-14.6,14.2-24.3,18.9c-9.7,4.7-21.1,7.1-34,7.1c-13,0-24.3-2.4-34.1-7.1
			c-9.8-4.7-17.9-11-24.4-18.9c-6.5-7.9-11.3-17-14.6-27.3c-3.2-10.3-4.9-21.2-4.9-32.6C426.8,594.6,428.5,583.8,431.7,573.4z
			 M446.2,632.6c2.4,8.7,6.1,16.5,11.1,23.4c5,6.9,11.5,12.4,19.3,16.5c7.9,4.2,17.3,6.2,28.2,6.2c11,0,20.3-2.1,28.1-6.2
			c7.8-4.2,14.2-9.7,19.2-16.5c5-6.9,8.7-14.7,11.1-23.4c2.4-8.7,3.6-17.6,3.6-26.5c0-9.1-1.2-18-3.6-26.6
			c-2.4-8.6-6.1-16.4-11.1-23.3c-5-6.9-11.4-12.4-19.2-16.5c-7.8-4.2-17.2-6.3-28.1-6.3c-11,0-20.4,2.1-28.2,6.3
			c-7.9,4.2-14.3,9.7-19.3,16.5c-5,6.9-8.7,14.6-11.1,23.3c-2.4,8.6-3.6,17.5-3.6,26.6C442.6,615,443.8,623.8,446.2,632.6z"/>
	</g>
	<g>
		<path class="st0" d="M351.1,731.5c6.9,0,13.6,0.7,20,2c6.4,1.3,12,3.6,16.9,6.7c4.9,3.2,8.8,7.3,11.7,12.5
			c2.9,5.2,4.4,11.6,4.4,19.3c0,4.3-0.7,8.5-2.1,12.6c-1.4,4.1-3.4,7.8-5.9,11.1c-2.5,3.3-5.6,6.1-9,8.4c-3.5,2.3-7.4,3.9-11.7,4.9
			v0.5c10.6,1.4,19.1,5.8,25.5,13.1c6.3,7.3,9.5,16.4,9.5,27.2c0,2.6-0.2,5.6-0.7,8.9c-0.5,3.3-1.4,6.7-2.8,10.2
			c-1.4,3.5-3.4,6.9-6,10.3c-2.6,3.4-6.1,6.4-10.5,8.9c-4.4,2.5-9.8,4.6-16.2,6.2c-6.4,1.6-14.1,2.4-23,2.4h-69.9V731.5H351.1z
			 M351.1,803.9c6.3,0,11.8-0.7,16.4-2.2c4.6-1.5,8.5-3.5,11.6-6c3.1-2.5,5.4-5.5,6.9-8.9c1.5-3.4,2.3-7,2.3-10.9
			c0-20.7-12.4-31-37.3-31H297v59H351.1z M351.1,883.3c5.9,0,11.4-0.5,16.7-1.5c5.2-1,9.9-2.8,13.9-5.4c4-2.6,7.2-6.1,9.5-10.5
			c2.3-4.4,3.5-9.9,3.5-16.5c0-10.6-3.7-18.6-11.2-24c-7.5-5.3-18.2-8-32.3-8H297v66H351.1z"/>
		<path class="st0" d="M431.7,781.5c3.2-10.3,8.1-19.5,14.6-27.4c6.5-7.9,14.6-14.3,24.4-19c9.8-4.7,21.2-7.1,34.1-7.1
			c13,0,24.3,2.4,34,7.1c9.7,4.7,17.8,11,24.3,19c6.5,7.9,11.3,17.1,14.6,27.4c3.2,10.3,4.9,21.2,4.9,32.6c0,11.4-1.6,22.3-4.9,32.6
			c-3.2,10.3-8.1,19.4-14.6,27.3c-6.5,7.9-14.6,14.2-24.3,18.9c-9.7,4.7-21.1,7.1-34,7.1c-13,0-24.3-2.4-34.1-7.1
			c-9.8-4.7-17.9-11-24.4-18.9c-6.5-7.9-11.3-17-14.6-27.3c-3.2-10.3-4.9-21.2-4.9-32.6C426.8,802.7,428.5,791.8,431.7,781.5z
			 M446.2,840.6c2.4,8.7,6.1,16.5,11.1,23.4c5,6.9,11.5,12.4,19.3,16.5c7.9,4.2,17.3,6.2,28.2,6.2c11,0,20.3-2.1,28.1-6.2
			c7.8-4.2,14.2-9.7,19.2-16.5c5-6.9,8.7-14.7,11.1-23.4c2.4-8.7,3.6-17.6,3.6-26.5c0-9.1-1.2-18-3.6-26.6
			c-2.4-8.6-6.1-16.4-11.1-23.3c-5-6.9-11.4-12.4-19.2-16.5c-7.8-4.2-17.2-6.3-28.1-6.3c-11,0-20.4,2.1-28.2,6.3
			c-7.9,4.2-14.3,9.7-19.3,16.5c-5,6.9-8.7,14.6-11.1,23.3c-2.4,8.6-3.6,17.5-3.6,26.6C442.6,823.1,443.8,831.9,446.2,840.6z"/>
		<path class="st0" d="M720.3,731.5v13.4h-57.6v151.8h-15.7V744.9h-57.4v-13.4H720.3z"/>
	</g>
</g>
<g>
	<path class="st1" d="M994,6v988H6V6H994 M1000,0H0v1000h1000V0L1000,0z"/>
</g>
</svg>
